<?xml version="1.0" encoding="UTF-8"?>
<svg id="Camada_2" data-name="Camada 2" xmlns="http://www.w3.org/2000/svg" viewBox="0 0 720 279.07">
  <defs>
    <style>
      .cls-1 {
        letter-spacing: -.01em;
      }

      .cls-2 {
        letter-spacing: 0em;
      }

      .cls-3 {
        font-family: Montserrat-Light, Montserrat;
        font-weight: 300;
      }

      .cls-4 {
        font-family: Montserrat-Bold, Montserrat;
        font-weight: 700;
      }

      .cls-5 {
        letter-spacing: -.01em;
      }

      .cls-6 {
        font-size: 135.42px;
      }

      .cls-7 {
        letter-spacing: 0em;
      }
    </style>
  </defs>
  <g id="Camada_1-2" data-name="Camada 1">
    <g>
      <g>
        <g>
          <path d="M60.14,76.5c-2.48,4.95-3.88,10.54-3.88,16.45,0,20.26,16.43,36.69,36.69,36.69,9.03,0,17.3-3.26,23.69-8.67l15.29,11.67-43.14,140.06C70.71,245.8,0,137.72,0,92.95,0,54.55,23.28,21.59,56.5,7.42c.37,17.42,1.3,44.28,3.64,69.08Z"/>
          <path d="M182.47,67.88h0c-2.77,3.49-12.55,9.93-16.12,12.89,1.4,20.07,3.23,44.29.31,73.2-27.22,57.56-73.71,124.87-73.71,124.87,16.23-59.15,44.01-125.06,55.7-189.84-5.67,3.56-13.79,7.02-19.39,9.26.25-1.73.38-3.5.38-5.31,0-13.92-7.76-26.04-19.19-32.25,1.91-.27,3.82-.58,5.73-.94,5.05-.93,10.1-2.16,15.05-3.67,13.45-4.08,26.25-10.2,36.7-18.06,6.52,8.88,11.49,18.96,14.54,29.85Z"/>
        </g>
        <path d="M163.73,32.71c-16.21,13.19-38.91,21.88-60.98,24.87-3.12-.86-6.41-1.32-9.81-1.32-10.99,0-20.85,4.83-27.58,12.49-1.98-23.15-2.81-47.36-3.16-63.54,9.62-3.37,19.96-5.2,30.73-5.2,28.35,0,53.74,12.69,70.78,32.71Z"/>
      </g>
      <text class="cls-6" transform="translate(242.63 130.87)"><tspan class="cls-4"><tspan class="cls-1" x="0" y="0">L</tspan><tspan class="cls-2" x="80.17" y="0">O</tspan><tspan class="cls-5" x="194.47" y="0">C</tspan><tspan x="291.84" y="0">AL</tspan></tspan><tspan class="cls-3"><tspan class="cls-7" x="0" y="112.85">T</tspan><tspan x="74.89" y="112.85">OP</tspan></tspan></text>
    </g>
  </g>
</svg>