<?xml version="1.0" encoding="UTF-8"?>
<svg id="Camada_2" data-name="Camada 2" xmlns="http://www.w3.org/2000/svg" viewBox="0 0 720 450.04">
  <defs>
    <style>
      .cls-1 {
        letter-spacing: 0em;
      }

      .cls-1, .cls-2 {
        font-family: Montserrat-Light, Montserrat;
        font-weight: 300;
      }

      .cls-3 {
        font-size: 127.86px;
      }

      .cls-4 {
        letter-spacing: -.01em;
      }

      .cls-4, .cls-5, .cls-6, .cls-7 {
        font-family: Montserrat-Bold, Montserrat;
        font-weight: 700;
      }

      .cls-5 {
        letter-spacing: 0em;
      }

      .cls-6 {
        letter-spacing: -.01em;
      }
    </style>
  </defs>
  <g id="Camada_1-2" data-name="Camada 1">
    <g>
      <g>
        <g>
          <path d="M330.64,72.23c-2.35,4.67-3.67,9.95-3.67,15.53,0,19.13,15.51,34.64,34.64,34.64,8.52,0,16.33-3.08,22.36-8.19l14.44,11.02-40.73,132.24c-17.06-25.4-83.82-127.45-83.82-169.72,0-36.25,21.98-67.37,53.34-80.75.35,16.45,1.23,41.81,3.44,65.22Z"/>
          <path d="M446.14,64.09h0c-2.61,3.3-11.85,9.37-15.22,12.17,1.33,18.95,3.05,41.81.29,69.11-25.7,54.35-69.59,117.9-69.59,117.9,15.32-55.85,41.56-118.08,52.59-179.25-5.35,3.36-13.02,6.63-18.3,8.74.24-1.64.36-3.31.36-5.01,0-13.15-7.33-24.59-18.12-30.45,1.8-.26,3.61-.55,5.41-.89,4.77-.88,9.53-2.04,14.21-3.46,12.7-3.85,24.78-9.63,34.65-17.05,6.16,8.39,10.85,17.9,13.72,28.18Z"/>
        </g>
        <path d="M428.45,30.88c-15.31,12.45-36.73,20.66-57.57,23.48-2.95-.81-6.05-1.25-9.26-1.25-10.38,0-19.69,4.56-26.04,11.79-1.87-21.85-2.65-44.71-2.98-59.99,9.08-3.18,18.85-4.91,29.02-4.91,26.77,0,50.74,11.99,66.83,30.88Z"/>
      </g>
      <text class="cls-3" transform="translate(0 416.03)"><tspan class="cls-6" x="0" y="0">L</tspan><tspan class="cls-7" x="75.7" y="0">O</tspan><tspan class="cls-4" x="183.61" y="0">C</tspan><tspan class="cls-5" x="275.55" y="0">AL</tspan><tspan class="cls-1" x="450.72" y="0">T</tspan><tspan class="cls-2" x="521.43" y="0">OP</tspan></text>
    </g>
  </g>
</svg>