<?xml version="1.0" encoding="UTF-8"?>
<svg id="Camada_2" data-name="Camada 2" xmlns="http://www.w3.org/2000/svg" viewBox="0 0 713.51 107.18">
  <defs>
    <style>
      .cls-1 {
        fill: #fff;
      }
    </style>
  </defs>
  <g id="Camada_1-2">
    <g>
      <g>
        <g>
          <path class="cls-1" d="M23.12,29.41c-.95,1.9-1.49,4.05-1.49,6.32,0,7.79,6.31,14.1,14.1,14.1,3.47,0,6.65-1.25,9.1-3.33l5.88,4.49-16.58,53.84C27.18,94.48,0,52.94,0,35.73,0,20.97,8.95,8.3,21.72,2.85c.14,6.7.5,17.02,1.4,26.55Z"/>
          <path class="cls-1" d="M70.14,26.09h0c-1.06,1.34-4.83,3.82-6.2,4.96.54,7.71,1.24,17.02.12,28.14-10.46,22.13-28.33,48-28.33,48,6.24-22.74,16.92-48.07,21.41-72.98-2.18,1.37-5.3,2.7-7.45,3.56.1-.67.15-1.35.15-2.04,0-5.35-2.98-10.01-7.38-12.4.73-.1,1.47-.22,2.2-.36,1.94-.36,3.88-.83,5.79-1.41,5.17-1.57,10.09-3.92,14.11-6.94,2.51,3.41,4.42,7.29,5.59,11.47Z"/>
        </g>
        <path class="cls-1" d="M62.94,12.57c-6.23,5.07-14.96,8.41-23.44,9.56-1.2-.33-2.46-.51-3.77-.51-4.22,0-8.02,1.86-10.6,4.8-.76-8.9-1.08-18.2-1.21-24.43,3.7-1.3,7.67-2,11.81-2,10.9,0,20.66,4.88,27.21,12.57Z"/>
      </g>
      <g>
        <path class="cls-1" d="M119.41,9.42h17.54v61.49h38v14.29h-55.54V9.42Z"/>
        <path class="cls-1" d="M178.73,47.31c0-22.52,17.54-39.19,41.46-39.19s41.46,16.56,41.46,39.19-17.65,39.19-41.46,39.19-41.46-16.67-41.46-39.19ZM243.91,47.31c0-14.4-10.18-24.25-23.71-24.25s-23.71,9.85-23.71,24.25,10.18,24.25,23.71,24.25,23.71-9.85,23.71-24.25Z"/>
        <path class="cls-1" d="M270.1,47.31c0-22.84,17.54-39.19,41.14-39.19,13.1,0,24.03,4.76,31.18,13.42l-11.26,10.39c-5.09-5.85-11.48-8.88-19.05-8.88-14.18,0-24.25,9.96-24.25,24.25s10.07,24.25,24.25,24.25c7.58,0,13.97-3.03,19.05-8.99l11.26,10.39c-7.15,8.77-18.08,13.53-31.29,13.53-23.49,0-41.03-16.35-41.03-39.19Z"/>
        <path class="cls-1" d="M402.61,68.96h-35.18l-6.71,16.24h-17.97l33.78-75.78h17.32l33.89,75.78h-18.4l-6.71-16.24ZM397.08,55.65l-12.02-29.01-12.02,29.01h24.03Z"/>
        <path class="cls-1" d="M435.62,9.42h17.54v61.49h38v14.29h-55.54V9.42Z"/>
        <path class="cls-1" d="M519.73,14.4h-27.28v-4.98h60.08v4.98h-27.28v70.8h-5.52V14.4Z"/>
        <path class="cls-1" d="M557.84,47.31c0-21.98,16.78-38.43,39.41-38.43s39.41,16.35,39.41,38.43-16.89,38.43-39.41,38.43-39.41-16.46-39.41-38.43ZM631.02,47.31c0-19.16-14.51-33.34-33.78-33.34s-33.89,14.18-33.89,33.34,14.51,33.34,33.89,33.34,33.78-14.18,33.78-33.34Z"/>
        <path class="cls-1" d="M713.51,34.97c0,15.91-11.48,25.44-30.53,25.44h-21.65v24.79h-5.52V9.42h27.17c19.05,0,30.53,9.53,30.53,25.55ZM707.88,34.97c0-13.1-8.66-20.57-24.9-20.57h-21.65v41.03h21.65c16.24,0,24.9-7.47,24.9-20.46Z"/>
      </g>
    </g>
  </g>
</svg>