<?xml version="1.0" encoding="UTF-8"?>
<svg id="Camada_2" data-name="Camada 2" xmlns="http://www.w3.org/2000/svg" viewBox="0 0 720 120.81">
  <defs>
    <style>
      .cls-1, .cls-2 {
        fill: #fff;
      }

      .cls-3 {
        letter-spacing: -.01em;
      }

      .cls-3, .cls-4, .cls-5, .cls-6 {
        font-family: Montserrat-Bold, Montserrat;
        font-weight: 700;
      }

      .cls-4 {
        letter-spacing: 0em;
      }

      .cls-7 {
        letter-spacing: 0em;
      }

      .cls-7, .cls-8 {
        font-family: Montserrat-Light, Montserrat;
        font-weight: 300;
      }

      .cls-5 {
        letter-spacing: -.01em;
      }

      .cls-2 {
        font-size: 108.25px;
      }
    </style>
  </defs>
  <g id="Camada_1-2" data-name="Camada 1">
    <g>
      <g>
        <g>
          <path class="cls-1" d="M23.12,36.22c-.95,1.9-1.49,4.05-1.49,6.32,0,7.79,6.31,14.1,14.1,14.1,3.47,0,6.65-1.25,9.1-3.33l5.88,4.49-16.58,53.84C27.18,101.3,0,59.75,0,42.54,0,27.78,8.95,15.11,21.72,9.67c.14,6.7.5,17.02,1.4,26.55Z"/>
          <path class="cls-1" d="M70.14,32.91h0c-1.06,1.34-4.83,3.82-6.2,4.96.54,7.71,1.24,17.02.12,28.14-10.46,22.13-28.33,48-28.33,48,6.24-22.74,16.92-48.07,21.41-72.98-2.18,1.37-5.3,2.7-7.45,3.56.1-.67.15-1.35.15-2.04,0-5.35-2.98-10.01-7.38-12.4.73-.1,1.47-.22,2.2-.36,1.94-.36,3.88-.83,5.79-1.41,5.17-1.57,10.09-3.92,14.11-6.94,2.51,3.41,4.42,7.29,5.59,11.47Z"/>
        </g>
        <path class="cls-1" d="M62.94,19.39c-6.23,5.07-14.96,8.41-23.44,9.56-1.2-.33-2.46-.51-3.77-.51-4.22,0-8.02,1.86-10.6,4.8-.76-8.9-1.08-18.2-1.21-24.43,3.7-1.3,7.67-2,11.81-2,10.9,0,20.66,4.88,27.21,12.57Z"/>
      </g>
      <text class="cls-2" transform="translate(110.42 92.02)"><tspan class="cls-3" x="0" y="0">L</tspan><tspan class="cls-6" x="64.09" y="0">O</tspan><tspan class="cls-5" x="155.45" y="0">C</tspan><tspan class="cls-4" x="233.29" y="0">AL</tspan><tspan class="cls-7" x="381.59" y="0">T</tspan><tspan class="cls-8" x="441.46" y="0">OP</tspan></text>
    </g>
  </g>
</svg>