<?xml version="1.0" encoding="UTF-8"?>
<svg id="Camada_2" data-name="Camada 2" xmlns="http://www.w3.org/2000/svg" viewBox="0 0 83.67 79.99">
  <defs>
    <style>
      .cls-1 {
        fill: #f4fa46;
      }
    </style>
  </defs>
  <g id="Camada_1-2" data-name="Camada 1">
    <path class="cls-1" d="M45.63,2.34l9.77,19.43c.62,1.23,1.79,2.08,3.15,2.29l21.5,3.29c3.45.53,4.83,4.76,2.35,7.22l-15.46,15.3c-.98.97-1.43,2.35-1.2,3.71l3.52,21.46c.56,3.45-3.04,6.07-6.14,4.46l-19.33-9.98c-1.22-.63-2.68-.63-3.9,0l-19.33,9.98c-3.1,1.6-6.71-1.02-6.14-4.46l3.52-21.46c.22-1.36-.23-2.74-1.2-3.71L1.27,34.57c-2.48-2.46-1.11-6.69,2.35-7.22l21.5-3.29c1.36-.21,2.54-1.06,3.15-2.29L38.04,2.34c1.57-3.12,6.02-3.12,7.59,0Z"/>
  </g>
</svg>