<?xml version="1.0" encoding="UTF-8"?>
<svg id="Camada_2" data-name="Camada 2" xmlns="http://www.w3.org/2000/svg" viewBox="0 0 39.77 39.77">
  <defs>
    <style>
      .cls-1 {
        fill: #fff;
      }
    </style>
  </defs>
  <g id="Camada_1-2" data-name="Camada 1">
    <g>
      <path class="cls-1" d="M9.56.01h20.54c5.14.32,9.34,4.53,9.67,9.67v20.42c-.33,5.14-4.54,9.34-9.67,9.67H9.68C4.56,39.44.37,35.28,0,30.16V9.64C.36,4.57,4.46.38,9.56.01ZM9.75,3.43c-3.37.27-6.12,3.07-6.34,6.44v20.13c.26,3.41,3.07,6.19,6.49,6.39h20.03c3.43-.23,6.25-3.05,6.46-6.49V9.87c-.22-3.4-3-6.2-6.39-6.46H9.75Z"/>
      <path class="cls-1" d="M19.25,10.03c8.28-.48,13.56,8.75,8.75,15.58-4.33,6.15-13.71,5.38-16.99-1.37-3.06-6.28,1.29-13.81,8.24-14.21ZM19.25,13.05c-4.84.38-7.71,5.83-5.41,10.1,2.44,4.53,8.84,4.89,11.75.63,3.31-4.84-.54-11.18-6.34-10.73Z"/>
      <path class="cls-1" d="M30.76,6.61c1.8-.08,2.99,1.81,2.13,3.39s-3.17,1.54-4.01-.03c-.78-1.46.23-3.29,1.88-3.36Z"/>
    </g>
  </g>
</svg>