<?xml version="1.0" encoding="UTF-8"?>
<svg id="Camada_2" data-name="Camada 2" xmlns="http://www.w3.org/2000/svg" viewBox="0 0 41.52 28.72">
  <defs>
    <style>
      .cls-1 {
        fill: #fff;
      }
    </style>
  </defs>
  <g id="Camada_1-2" data-name="Camada 1">
    <path class="cls-1" d="M22.05,0c3.36.01,6.73.09,10.08.2,1.58.05,3.21.1,4.74.52,3.27.9,3.98,3.94,4.3,6.93.51,4.91.53,10.3-.37,15.17-.52,2.82-1.55,4.97-4.69,5.32-1.19.13-2.47.19-3.66.26-3.26.2-6.54.36-9.81.3-4.09-.08-8.17-.15-12.25-.22-1.84-.03-3.76-.07-5.56-.49-3.42-.79-4.12-3.79-4.46-6.87C-.18,16.22-.12,11.13.57,6.24c.19-1.34.36-2.6,1.16-3.72C3.26.38,5.65.48,8.03.34,11.96.12,15.92.02,19.87,0c.73,0,1.46,0,2.18,0ZM16.66,8.25v12.17l10.61-6.1-10.61-6.07Z"/>
  </g>
</svg>