<?xml version="1.0" encoding="UTF-8"?>
<svg id="Camada_2" data-name="Camada 2" xmlns="http://www.w3.org/2000/svg" viewBox="0 0 18.49 17.68">
  <defs>
    <style>
      .cls-1 {
        fill: #fff;
      }
    </style>
  </defs>
  <g id="Camada_1-2" data-name="Camada 1">
    <path class="cls-1" d="M10.08.52l2.16,4.29c.14.27.4.46.7.51l4.75.73c.76.12,1.07,1.05.52,1.6l-3.42,3.38c-.22.21-.32.52-.27.82l.78,4.74c.12.76-.67,1.34-1.36.99l-4.27-2.21c-.27-.14-.59-.14-.86,0l-4.27,2.21c-.69.35-1.48-.22-1.36-.99l.78-4.74c.05-.3-.05-.61-.27-.82L.28,7.64c-.55-.54-.24-1.48.52-1.6l4.75-.73c.3-.05.56-.23.7-.51L8.41.52c.35-.69,1.33-.69,1.68,0Z"/>
  </g>
</svg>