<?xml version="1.0" encoding="UTF-8"?>
<svg id="Camada_2" data-name="Camada 2" width="30px" height="30px" xmlns="http://www.w3.org/2000/svg" viewBox="0 0 39.95 39.74">
  <defs>
    <style>
      .cls-1 {
        fill: #fff;
      }
    </style>
  </defs>
  <g id="Camada_1-2">
    <path class="cls-1" d="M20.48,0c.1.07.29.03.42.04,10.4.34,18.82,9.12,19.04,19.47.16,7.52-3.75,14.38-10.3,18.01-2,1.11-4.28,1.91-6.55,2.22v-13.94h4.63l.9-5.8h-5.53c.02-1.45-.05-2.91.04-4.35.07-.43.2-.85.43-1.23,1.07-1.77,3.6-1.19,5.33-1.29v-4.91c-3.21-.45-7.06-.99-9.7,1.34-1.64,1.45-2.27,3.6-2.36,5.74-.06,1.55.05,3.15,0,4.7h-5.07v5.8h5.07v13.94c-8.04-1.18-14.65-7.48-16.38-15.39C.06,22.58-.04,20.92.01,19.12.32,8.74,8.82.59,19.06.04c.11,0,.22,0,.33,0l.09-.04h1Z"/>
  </g>
</svg>