<?xml version="1.0" encoding="UTF-8"?>
<svg id="Camada_2" data-name="Camada 2" width="30px" height="30px" xmlns="http://www.w3.org/2000/svg" viewBox="0 0 39.94 40">
  <defs>
    <style>
      .cls-1 {
        fill: #00000;
      }
    </style>
  </defs>
  <g id="Camada_1-2">
    <path class="cls-1" d="M39.37,36.68l-8.29-8.3c2.4-2.99,3.83-6.79,3.83-10.92C34.91,7.81,27.09,0,17.45,0S0,7.81,0,17.45s7.81,17.45,17.45,17.45c4.11,0,7.88-1.42,10.86-3.79l8.3,8.31c.38.38.88.57,1.38.57s1-.19,1.38-.57c.76-.76.76-1.99,0-2.75ZM17.45,31.16c-7.57,0-13.71-6.14-13.71-13.71S9.88,3.75,17.45,3.75s13.71,6.14,13.71,13.71-6.14,13.71-13.71,13.71Z"/>
  </g>
</svg>